HIERARCHY
ROOT Hips
{
	OFFSET -0.001795 -0.223333 0.028219
	CHANNELS 6 Xposition Yposition Zposition Zrotation Yrotation Xrotation 
	JOINT LeftUpLeg
	{
		OFFSET 0.069520 -0.091406 -0.006815
		CHANNELS 3 Zrotation Yrotation Xrotation
		JOINT LeftLeg
		{
			OFFSET 0.034277 -0.375199 -0.004496
			CHANNELS 3 Zrotation Yrotation Xrotation
			JOINT LeftFoot
			{
				OFFSET -0.013596 -0.397961 -0.043693
				CHANNELS 3 Zrotation Yrotation Xrotation
				JOINT LeftToe
				{
					OFFSET 0.026358 -0.055791 0.119288
					CHANNELS 3 Zrotation Yrotation Xrotation
					End Site
					{
						OFFSET 0.000000 0.000000 0.000000
					}
				}
			}
		}
	}
	JOINT RightUpLeg
	{
		OFFSET -0.067670 -0.090522 -0.004320
		CHANNELS 3 Zrotation Yrotation Xrotation
		JOINT RightLeg
		{
			OFFSET -0.038290 -0.382569 -0.008850
			CHANNELS 3 Zrotation Yrotation Xrotation
			JOINT RightFoot
			{
				OFFSET 0.015774 -0.398415 -0.042312
				CHANNELS 3 Zrotation Yrotation Xrotation
				JOINT RightToe
				{
					OFFSET -0.025372 -0.048144 0.123348
					CHANNELS 3 Zrotation Yrotation Xrotation
					End Site
					{
						OFFSET 0.000000 0.000000 0.000000
					}
				}
			}
		}
	}
	JOINT Spine
	{
		OFFSET -0.002533 0.108963 -0.026696
		CHANNELS 3 Zrotation Yrotation Xrotation
		JOINT Spine1
		{
			OFFSET 0.005487 0.135180 0.001092
			CHANNELS 3 Zrotation Yrotation Xrotation
			JOINT Spine2
			{
				OFFSET 0.001457 0.052922 0.025425
				CHANNELS 3 Zrotation Yrotation Xrotation
				JOINT Neck
				{
					OFFSET -0.002778 0.213870 -0.042857
					CHANNELS 3 Zrotation Yrotation Xrotation
					JOINT Head
					{
						OFFSET 0.005152 0.064970 0.051349
						CHANNELS 3 Zrotation Yrotation Xrotation
						End Site
						{
							OFFSET 0.000000 0.000000 0.000000
						}
					}
				}
				JOINT LeftShoulder
				{
					OFFSET 0.078845 0.121749 -0.034090
					CHANNELS 3 Zrotation Yrotation Xrotation
					JOINT LeftArm
					{
						OFFSET 0.090977 0.030469 -0.008868
						CHANNELS 3 Zrotation Yrotation Xrotation
						JOINT LeftForeArm
						{
							OFFSET 0.259612 -0.012772 -0.027456
							CHANNELS 3 Zrotation Yrotation Xrotation
							JOINT LeftHand
							{
								OFFSET 0.249234 0.008986 -0.001171
								CHANNELS 3 Zrotation Yrotation Xrotation
								End Site
								{
									OFFSET 0.000000 0.000000 0.000000
								}
							}
						}
					}
				}
				JOINT RightShoulder
				{
					OFFSET -0.081759 0.118833 -0.038615
					CHANNELS 3 Zrotation Yrotation Xrotation
					JOINT RightArm
					{
						OFFSET -0.096012 0.032551 -0.009143
						CHANNELS 3 Zrotation Yrotation Xrotation
						JOINT RightForeArm
						{
							OFFSET -0.253742 -0.013329 -0.021401
							CHANNELS 3 Zrotation Yrotation Xrotation
							JOINT RightHand
							{
								OFFSET -0.255298 0.007772 -0.005559
								CHANNELS 3 Zrotation Yrotation Xrotation
								End Site
								{
									OFFSET 0.000000 0.000000 0.000000
								}
							}
						}
					}
				}
			}
		}
	}
}
MOTION
Frames: 9
Frame Time: 0.050000
0.000000 0.990814 0.000000 0.839632 -2.780434 2.900768 5.471279 -0.153495 -1.792023 -0.944370 0.273512 -6.252046 -0.617847 5.220601 18.741824 0.000000 0.000000 0.000000 -0.511041 -0.056671 0.795810 -3.337171 0.171587 -2.367315 -0.530434 -6.521590 12.449020 0.000000 0.000000 0.000000 3.326147 0.006737 -0.948795 -2.429444 1.118148 -6.738087 -2.686321 3.567687 8.424061 2.871645 -0.355135 -16.235253 0.000000 0.000000 0.000000 -7.070513 4.286841 -2.547437 -23.242345 -15.975992 -0.327757 12.452670 2.628294 0.221974 0.000000 0.000000 0.000000 3.594941 -9.681240 -3.919113 28.583984 9.857284 -1.028610 -11.952105 0.954681 0.263872 0.000000 0.000000 0.000000 
-0.002963 0.993281 0.002822 0.399074 -3.745451 3.540155 5.991845 -0.144584 -1.676803 -0.830812 0.301346 -7.297219 0.305740 6.398354 18.735731 0.000000 0.000000 0.000000 -0.042355 -0.008409 0.084972 -3.109039 0.140391 -2.464330 -1.331972 -6.871254 8.511079 0.000000 0.000000 0.000000 4.046371 0.016454 -1.253979 -2.514924 1.137476 -6.380031 -3.330994 4.459377 6.977419 1.733549 0.546940 -17.677935 0.000000 0.000000 0.000000 -6.987051 5.039836 -2.891435 -21.318712 -14.456080 -0.482407 10.582069 4.592406 0.276147 0.000000 0.000000 0.000000 3.295196 -13.315571 -5.263773 27.232612 7.619030 -1.341651 -11.499103 1.729656 0.209381 0.000000 0.000000 0.000000 
-0.006924 0.994885 0.006084 0.768631 -4.420766 3.533279 6.371224 -0.145283 -2.021866 -0.639395 0.238962 -5.611079 0.596542 6.810243 19.176926 0.000000 0.000000 0.000000 -0.169625 -0.019631 0.257905 -3.219785 0.104257 -3.090435 -1.093062 -6.760210 9.365817 0.000000 0.000000 0.000000 3.860945 -0.029764 -0.617502 -2.408197 1.068045 -8.972618 -3.848375 5.173337 9.184029 3.686821 -0.674179 -17.027298 0.000000 0.000000 0.000000 -3.726801 7.685939 -3.316814 -23.452390 -15.714029 -0.394796 12.325042 7.596105 0.554714 0.000000 0.000000 0.000000 2.720791 -14.780204 -5.731393 25.589050 7.166177 -1.485902 -11.272898 -2.025109 0.461732 0.000000 0.000000 0.000000 
-0.011776 0.995340 0.009071 0.896778 -4.854059 4.451537 6.940480 -0.168488 -2.635110 -0.175518 0.224716 -6.069489 0.153287 6.298441 20.082465 0.000000 0.000000 0.000000 0.150346 0.016022 -0.262103 -3.240957 0.106614 -3.022190 -1.128545 -6.624139 8.665138 0.000000 0.000000 0.000000 3.501845 0.042287 -1.677806 -2.271951 1.010274 -8.111594 -3.789876 4.220281 8.476869 2.573235 -0.121379 -17.062278 0.000000 0.000000 0.000000 -3.158121 9.593463 -3.884643 -23.503677 -14.349718 -0.599362 13.982016 8.884768 0.802415 0.000000 0.000000 0.000000 1.193675 -15.364819 -5.627153 24.147905 6.944209 -1.375226 -10.454772 -2.403124 0.422850 0.000000 0.000000 0.000000 
-0.017339 0.995162 0.012039 0.978205 -5.231480 4.457413 7.491179 -0.152266 -2.623117 0.430909 0.161369 -5.478020 0.010201 5.881738 19.465283 0.000000 0.000000 0.000000 0.503282 0.039901 -0.650078 -3.447392 0.161020 -2.408439 -1.024036 -6.094653 7.710978 0.000000 0.000000 0.000000 3.273956 0.041245 -1.632027 -1.707398 0.782201 -8.562377 -3.959598 4.677474 8.976956 3.059012 -0.459582 -16.429548 0.000000 0.000000 0.000000 -1.979065 9.422767 -3.592769 -23.791168 -12.826060 -0.861466 13.378926 8.360687 0.706412 0.000000 0.000000 0.000000 1.150638 -15.668783 -5.739271 23.132087 7.062598 -1.347046 -11.138248 -3.766273 0.552595 0.000000 0.000000 0.000000 
-0.022897 0.994693 0.014546 1.228179 -5.955108 4.528541 7.476725 -0.176167 -3.963352 1.057863 -0.004275 -2.837741 -0.359025 5.105299 18.981728 0.000000 0.000000 0.000000 0.191262 0.052401 -0.666404 -2.867897 0.163413 -1.627401 -1.179001 -6.087480 6.736390 0.000000 0.000000 0.000000 3.072180 0.057681 -1.846834 -2.214579 0.966645 -7.974401 -3.503950 4.081944 8.769093 2.599923 -0.303231 -16.329894 0.000000 0.000000 0.000000 -2.203987 9.790196 -3.764533 -22.663544 -12.757480 -0.878693 14.460120 6.901959 0.685659 0.000000 0.000000 0.000000 0.531685 -14.959332 -5.323657 22.830091 8.441677 -1.097739 -11.956033 -2.519593 0.489077 0.000000 0.000000 0.000000 
-0.027463 0.994277 0.015917 1.125222 -6.128380 4.089167 8.123245 -0.165472 -5.283998 0.546007 -0.095806 0.879308 -0.958538 3.691182 17.034736 0.000000 0.000000 0.000000 0.505593 -0.015007 -0.110084 -2.375073 0.142296 -1.309112 -0.961253 -5.115073 5.496793 0.000000 0.000000 0.000000 3.246440 -0.028573 -0.589235 -2.021589 0.887853 -8.250075 -3.544059 4.683049 8.790268 2.237832 -0.053950 -16.017326 0.000000 0.000000 0.000000 -2.168604 8.970266 -3.463534 -22.599333 -14.043829 -0.680288 15.646645 3.282978 0.381036 0.000000 0.000000 0.000000 0.677460 -14.395765 -5.164337 22.556006 10.504635 -0.817404 -14.712723 0.279940 0.369591 0.000000 0.000000 0.000000 
-0.030204 0.991921 0.015595 1.104759 -4.253555 3.452041 8.846101 -0.196601 -8.871705 -0.093817 -0.197161 7.461492 -1.675900 2.215908 14.772781 0.000000 0.000000 0.000000 0.633405 -0.059579 0.316930 -2.171535 0.231133 0.342113 -1.031044 -4.392636 3.737678 0.000000 0.000000 0.000000 2.902356 -0.116957 0.889715 -1.970025 0.904567 -7.891395 -3.230707 3.620837 8.825132 2.817075 -0.424337 -15.988663 0.000000 0.000000 0.000000 -2.582453 6.405727 -2.601256 -21.535335 -16.005281 -0.418483 18.614387 -1.972024 -0.200178 0.000000 0.000000 0.000000 -0.046746 -12.340692 -4.301157 21.915349 12.380226 -0.565303 -17.526205 2.287702 0.200176 0.000000 0.000000 0.000000 
-0.030814 0.987164 0.014118 1.041744 -2.553251 2.783501 9.580368 -0.189461 -15.392042 -1.427430 -0.115007 17.852573 -2.292517 0.934729 13.141462 0.000000 0.000000 0.000000 0.323075 -0.041132 0.285324 -1.897251 0.346839 2.708241 -1.389809 -4.541841 2.301876 0.000000 0.000000 0.000000 2.125450 -0.222251 3.129334 -1.196369 0.628263 -7.352362 -3.064275 3.221513 8.170231 2.843507 -0.367689 -16.062017 0.000000 0.000000 0.000000 -4.008439 3.629871 -1.813549 -19.780901 -19.425196 0.006149 25.016116 -7.815333 -1.444832 0.000000 0.000000 0.000000 0.256389 -9.300809 -3.291098 19.645647 14.882939 -0.288046 -23.004964 4.500921 -0.089673 0.000000 0.000000 0.000000 
